<?xml version="1.0" encoding="UTF-8" standalone="no"?>
<svg xmlns="http://www.w3.org/2000/svg" version="1.2" baseProfile="tiny" viewBox="0.00 0.00 512.00 512.00">
<g stroke-width="2.00" fill="none" stroke-linecap="butt">
<path stroke="#a5a1ba" vector-effect="non-scaling-stroke" d="
  M 163.63 22.01
  L 163.71 26.48"
/>
<path stroke="#604968" vector-effect="non-scaling-stroke" d="
  M 163.71 26.48
  Q 163.30 26.22 162.97 26.17
  Q 162.49 26.11 162.34 26.56
  Q 160.06 33.26 153.72 37.14
  C 142.46 44.02 128.55 38.03 124.40 26.01
  A 0.57 0.56 -13.5 0 0 123.78 25.64
  Q 123.49 25.68 123.28 25.97"
/>
<path stroke="#a098b8" vector-effect="non-scaling-stroke" d="
  M 123.28 25.97
  L 123.39 22.01"
/>
<path stroke="#a5a1ba" vector-effect="non-scaling-stroke" d="
  M 238.62 22.01
  Q 238.92 24.87 238.55 24.99"
/>
<path stroke="#604968" vector-effect="non-scaling-stroke" d="
  M 238.55 24.99
  Q 234.30 34.36 227.89 37.64
  C 216.43 43.51 203.61 37.88 199.29 26.00
  Q 199.07 25.41 198.26 25.72"
/>
<path stroke="#a5a1ba" vector-effect="non-scaling-stroke" d="
  M 198.26 25.72
  L 198.39 22.01"
/>
<path stroke="#a5a1ba" vector-effect="non-scaling-stroke" d="
  M 313.62 22.01
  L 313.72 26.98"
/>
<path stroke="#604968" vector-effect="non-scaling-stroke" d="
  M 313.72 26.98
  Q 312.73 26.40 312.53 26.84
  Q 307.77 37.53 296.99 39.64
  C 286.71 41.65 277.41 35.28 274.21 25.28
  Q 274.06 24.79 273.26 24.79"
/>
<path stroke="#a5a1ba" vector-effect="non-scaling-stroke" d="
  M 273.26 24.79
  L 273.38 22.01"
/>
<path stroke="#a5a1ba" vector-effect="non-scaling-stroke" d="
  M 388.62 22.01
  Q 388.92 24.84 388.55 25.00"
/>
<path stroke="#604968" vector-effect="non-scaling-stroke" d="
  M 388.55 25.00
  Q 384.17 34.69 377.41 37.90
  C 366.17 43.23 354.10 38.00 349.54 26.52
  A 0.65 0.65 0.0 0 0 348.98 26.11
  Q 348.65 26.09 348.27 26.21"
/>
<path stroke="#a5a1ba" vector-effect="non-scaling-stroke" d="
  M 348.27 26.21
  L 348.39 22.01"
/>
<path stroke="#948dab" vector-effect="non-scaling-stroke" d="
  M 123.28 25.97
  Q 123.24 42.98 123.41 59.99
  C 123.52 71.23 132.21 80.02 143.43 80.08"
/>
<path stroke="#d9e5fd" vector-effect="non-scaling-stroke" d="
  M 143.43 80.08
  L 143.38 112.49"
/>
<path stroke="#c9d2f9" vector-effect="non-scaling-stroke" d="
  M 143.38 112.49
  Q 135.31 112.55 127.08 112.50
  Q 120.26 112.47 117.18 113.69
  Q 110.13 116.47 107.24 123.58
  Q 105.81 127.09 105.91 134.36
  Q 106.15 150.45 105.93 166.86
  Q 105.85 172.67 107.14 176.08
  Q 109.95 183.53 117.43 186.38
  Q 120.44 187.53 127.69 187.51
  Q 135.60 187.50 143.32 187.53"
/>
<path stroke="#d9e5fd" vector-effect="non-scaling-stroke" d="
  M 143.32 187.53
  L 143.34 212.49"
/>
<path stroke="#c9d2f9" vector-effect="non-scaling-stroke" d="
  M 143.34 212.49
  Q 135.37 212.54 127.15 212.51
  Q 120.04 212.48 116.97 213.75
  Q 110.07 216.62 107.26 223.53
  Q 105.85 227.02 105.92 233.30
  Q 106.13 250.84 105.99 269.75
  C 105.91 279.90 113.96 287.48 124.00 287.49
  Q 133.80 287.50 143.37 287.53"
/>
<path stroke="#d9e5fd" vector-effect="non-scaling-stroke" d="
  M 143.37 287.53
  Q 143.62 299.13 143.48 310.61
  Q 143.48 311.00 143.32 311.34
  Q 143.17 311.64 142.89 311.81
  A 0.14 0.14 0.0 0 0 142.89 312.05
  L 143.54 312.48"
/>
<path stroke="#c9d2f9" vector-effect="non-scaling-stroke" d="
  M 143.54 312.48
  Q 134.96 312.52 126.40 312.52
  Q 120.13 312.52 117.18 313.69
  Q 110.05 316.51 107.22 323.67
  Q 105.80 327.26 105.91 333.94
  Q 106.19 350.55 105.89 366.98
  C 105.73 375.77 108.84 382.95 117.16 386.29
  Q 120.23 387.52 127.69 387.51
  Q 135.60 387.49 143.37 387.55"
/>
<path stroke="#d9e5fd" vector-effect="non-scaling-stroke" d="
  M 143.37 387.55
  Q 143.60 398.61 143.48 409.56
  C 143.47 410.52 142.90 411.22 142.92 412.20"
/>
<path stroke="#c9d2f9" vector-effect="non-scaling-stroke" d="
  M 142.92 412.20
  Q 142.71 412.42 142.25 412.43
  Q 135.00 412.58 128.76 412.44
  Q 121.01 412.27 117.38 413.62
  Q 110.13 416.32 107.11 423.87
  Q 105.95 426.78 106.02 434.31
  Q 106.15 447.23 105.71 460.58"
/>
<path stroke="#a3d0fa" vector-effect="non-scaling-stroke" d="
  M 65.40 420.90
  Q 66.00 420.15 66.00 418.50
  Q 66.00 266.38 66.00 114.25
  Q 66.00 113.81 65.45 113.11"
/>
<path stroke="#9996ad" vector-effect="non-scaling-stroke" d="
  M 198.26 25.72
  Q 198.28 39.61 198.25 53.52
  Q 198.24 62.91 199.36 66.28
  C 205.21 83.86 230.08 84.98 237.13 67.56
  Q 238.62 63.89 238.71 60.75
  Q 239.00 49.74 238.55 24.99"
/>
<path stroke="#9996ad" vector-effect="non-scaling-stroke" d="
  M 273.26 24.79
  Q 273.28 39.30 273.26 53.82
  Q 273.25 63.45 274.55 66.88
  C 280.66 83.05 303.35 84.98 311.32 69.27
  Q 313.66 64.67 313.68 61.48
  Q 313.79 44.21 313.72 26.98"
/>
<path stroke="#9996ad" vector-effect="non-scaling-stroke" d="
  M 348.27 26.21
  Q 348.27 39.01 348.26 51.81
  Q 348.26 63.57 349.47 66.69
  Q 352.82 75.33 360.94 78.61
  C 374.37 84.02 388.49 74.26 388.72 59.75
  Q 388.93 45.99 388.55 25.00"
/>
<path stroke="#efe6a0" vector-effect="non-scaling-stroke" d="
  M 446.02 100.11
  L 382.81 163.31"
/>
<path stroke="#cedbfb" vector-effect="non-scaling-stroke" d="
  M 382.81 163.31
  Q 382.45 162.99 382.12 162.77
  Q 381.72 162.48 381.22 162.48
  Q 300.79 162.52 219.87 162.42
  C 216.33 162.42 213.03 163.53 211.69 167.00
  C 209.40 172.91 213.48 177.56 219.50 177.54
  Q 261.35 177.41 368.55 177.52"
/>
<path stroke="#efe6a0" vector-effect="non-scaling-stroke" d="
  M 368.55 177.52
  L 354.69 191.27"
/>
<path stroke="#efdb9c" vector-effect="non-scaling-stroke" d="
  M 354.69 191.27
  L 322.11 223.79"
/>
<path stroke="#cedbfb" vector-effect="non-scaling-stroke" d="
  M 322.11 223.79
  Q 322.33 222.44 321.50 222.44
  Q 270.00 222.50 218.50 222.50
  C 211.00 222.50 208.17 232.53 214.58 236.38
  Q 216.49 237.53 220.53 237.51
  Q 264.30 237.36 308.32 237.56"
/>
<path stroke="#efdb9c" vector-effect="non-scaling-stroke" d="
  M 308.32 237.56
  L 287.04 258.96"
/>
<path stroke="#edd4c4" vector-effect="non-scaling-stroke" d="
  M 287.04 258.96
  Q 286.49 261.22 285.47 262.58"
/>
<path stroke="#cedbfb" vector-effect="non-scaling-stroke" d="
  M 285.47 262.58
  Q 232.17 262.37 218.50 262.50
  C 210.78 262.58 208.15 272.93 214.88 276.55
  Q 216.68 277.51 220.84 277.51
  Q 249.47 277.47 278.26 277.53"
/>
<path stroke="#edd4c4" vector-effect="non-scaling-stroke" d="
  M 278.26 277.53
  L 270.33 293.91"
/>
<path stroke="#a5a1ba" vector-effect="non-scaling-stroke" d="
  M 270.33 293.91
  L 256.49 322.46"
/>
<path stroke="#cedbfb" vector-effect="non-scaling-stroke" d="
  M 256.49 322.46
  Q 238.88 322.56 221.32 322.47
  Q 216.72 322.45 214.92 323.44
  C 208.13 327.16 210.67 337.45 218.76 337.46
  Q 285.50 337.55 347.50 337.50
  Q 353.61 337.50 355.57 332.38
  C 356.81 329.16 355.24 325.13 352.22 323.50
  Q 350.41 322.53 345.88 322.53
  Q 317.54 322.50 288.77 322.49"
/>
<path stroke="#a5a1ba" vector-effect="non-scaling-stroke" d="
  M 288.77 322.49
  L 295.41 318.97"
/>
<path stroke="#edd4c4" vector-effect="non-scaling-stroke" d="
  M 295.41 318.97
  L 330.30 300.91"
/>
<path stroke="#efdb9c" vector-effect="non-scaling-stroke" d="
  M 330.30 300.91
  L 353.63 277.60"
/>
<path stroke="#cedbfb" vector-effect="non-scaling-stroke" d="
  M 353.63 277.60
  Q 378.99 277.43 403.98 277.50
  C 407.29 277.51 410.19 277.15 412.17 274.19
  C 414.72 270.37 413.39 265.20 409.27 263.32
  Q 407.48 262.50 403.59 262.53
  Q 386.74 262.65 369.01 262.27"
/>
<path stroke="#efdb9c" vector-effect="non-scaling-stroke" d="
  M 369.01 262.27
  L 397.55 233.51"
/>
<path stroke="#efe6a0" vector-effect="non-scaling-stroke" d="
  M 397.55 233.51
  L 445.37 185.56
  A 0.45 0.45 0.0 0 1 445.73 185.43
  Q 445.85 185.44 446.02 185.46"
/>
<path stroke="#a9d9fc" vector-effect="non-scaling-stroke" d="
  M 446.02 185.46
  Q 445.91 302.10 446.09 418.75
  Q 446.09 419.77 446.60 420.84"
/>
<path stroke="#cedbfb" vector-effect="non-scaling-stroke" d="
  M 403.56 462.54
  Q 311.34 462.46 219.34 462.53
  Q 217.00 462.53 215.74 463.04
  C 209.56 465.53 209.52 474.13 215.30 476.74
  Q 217.11 477.56 220.74 477.55
  Q 301.03 477.35 379.71 477.50
  Q 380.10 477.50 380.11 477.89
  Q 380.11 478.07 380.05 478.31"
/>
<path stroke="#cedbfb" vector-effect="non-scaling-stroke" d="
  M 150.29 488.00
  Q 155.80 487.39 161.18 487.38
  Q 166.77 487.38 169.34 486.45
  C 177.72 483.41 181.11 476.35 181.06 467.56
  Q 180.95 447.42 180.99 430.02
  Q 181.00 423.80 176.92 418.83
  Q 171.98 412.82 164.00 412.69
  Q 153.07 412.51 144.00 412.38
  Q 143.49 412.37 142.92 412.20"
/>
<path stroke="#cedbfb" vector-effect="non-scaling-stroke" d="
  M 143.37 387.55
  Q 150.29 387.46 157.10 387.52
  Q 166.59 387.59 169.58 386.40
  Q 176.83 383.50 179.69 376.57
  Q 181.03 373.34 181.04 365.63
  Q 181.06 352.30 180.82 338.40"
/>
<path stroke="#efb0c3" vector-effect="non-scaling-stroke" d="
  M 180.82 338.40
  Q 184.16 334.88 188.41 330.65
  C 191.87 327.22 191.92 322.45 188.15 319.25
  Q 183.40 315.23 177.71 320.09"
/>
<path stroke="#cedbfb" vector-effect="non-scaling-stroke" d="
  M 177.71 320.09
  Q 174.50 315.28 169.29 313.49
  Q 166.39 312.49 159.10 312.51
  Q 151.31 312.52 143.54 312.48"
/>
<path stroke="#cedbfb" vector-effect="non-scaling-stroke" d="
  M 143.37 287.53
  Q 151.19 287.49 158.89 287.51
  Q 166.78 287.54 169.91 286.25
  Q 176.74 283.44 179.66 276.69
  Q 181.02 273.54 181.04 265.53
  Q 181.07 252.25 180.82 238.40"
/>
<path stroke="#efb0c3" vector-effect="non-scaling-stroke" d="
  M 180.82 238.40
  Q 184.17 234.87 188.41 230.66
  C 191.87 227.22 191.91 222.44 188.18 219.24
  Q 183.64 215.34 177.85 219.93"
/>
<path stroke="#cedbfb" vector-effect="non-scaling-stroke" d="
  M 177.85 219.93
  Q 174.53 215.53 169.79 213.70
  Q 166.81 212.55 160.06 212.52
  Q 151.81 212.49 143.34 212.49"
/>
<path stroke="#cedbfb" vector-effect="non-scaling-stroke" d="
  M 143.32 187.53
  Q 153.71 187.49 163.75 187.37
  C 173.73 187.25 181.00 179.33 181.06 169.50
  Q 181.15 154.35 180.80 138.41"
/>
<path stroke="#efb0c3" vector-effect="non-scaling-stroke" d="
  M 180.80 138.41
  Q 184.17 134.87 188.41 130.66
  C 191.87 127.22 191.91 122.44 188.18 119.24
  Q 183.64 115.34 177.85 119.93"
/>
<path stroke="#cedbfb" vector-effect="non-scaling-stroke" d="
  M 177.85 119.93
  Q 174.54 115.53 169.79 113.70
  Q 166.81 112.55 160.07 112.52
  Q 151.80 112.49 143.38 112.49"
/>
<path stroke="#9996ad" vector-effect="non-scaling-stroke" d="
  M 143.43 80.08
  C 152.23 80.10 159.85 74.58 162.62 66.33
  Q 163.66 63.23 163.70 56.52
  Q 163.79 41.49 163.71 26.48"
/>
<path stroke="#cedbfb" vector-effect="non-scaling-stroke" d="
  M 355.96 129.89
  A 7.39 7.39 0.0 0 0 348.57 122.50
  L 218.43 122.50
  A 7.39 7.39 0.0 0 0 211.04 129.89
  L 211.04 130.09
  A 7.39 7.39 0.0 0 0 218.43 137.48
  L 348.57 137.48
  A 7.39 7.39 0.0 0 0 355.96 130.09
  L 355.96 129.89"
/>
<path stroke="#cedbfb" vector-effect="non-scaling-stroke" d="
  M 413.46 369.92
  A 7.43 7.43 0.0 0 0 406.03 362.49
  L 218.47 362.49
  A 7.43 7.43 0.0 0 0 211.04 369.92
  L 211.04 370.06
  A 7.43 7.43 0.0 0 0 218.47 377.49
  L 406.03 377.49
  A 7.43 7.43 0.0 0 0 413.46 370.06
  L 413.46 369.92"
/>
<path stroke="#cedbfb" vector-effect="non-scaling-stroke" d="
  M 355.96 429.88
  A 7.38 7.38 0.0 0 0 348.58 422.50
  L 218.42 422.50
  A 7.38 7.38 0.0 0 0 211.04 429.88
  L 211.04 430.08
  A 7.38 7.38 0.0 0 0 218.42 437.46
  L 348.58 437.46
  A 7.38 7.38 0.0 0 0 355.96 430.08
  L 355.96 429.88"
/>
<path stroke="#ffd33d" vector-effect="non-scaling-stroke" d="
  M 483.69 90.11
  L 353.68 220.71
  A 0.59 0.59 0.0 0 1 352.72 220.53
  Q 348.64 211.01 351.09 201.01
  Q 351.43 199.62 352.98 196.18
  Q 354.03 193.83 354.69 191.27"
/>
<path stroke="#dfd39c" vector-effect="non-scaling-stroke" d="
  M 368.55 177.52
  L 382.81 163.31"
/>
<path stroke="#ffd33d" vector-effect="non-scaling-stroke" d="
  M 498.24 104.49
  L 367.55 235.12
  A 0.36 0.36 0.0 0 0 367.66 235.70
  Q 375.47 239.06 383.76 238.14
  Q 386.74 237.81 390.71 236.29
  Q 394.08 234.99 397.55 233.51"
/>
<path stroke="#dfc898" vector-effect="non-scaling-stroke" d="
  M 369.01 262.27
  L 353.63 277.60"
/>
<path stroke="#fdc161" vector-effect="non-scaling-stroke" d="
  M 330.30 300.91
  L 330.02 300.22
  A 1.48 1.42 -54.6 0 1 329.92 299.55
  Q 330.70 288.00 324.98 277.75"
/>
<path stroke="#ffbe36" vector-effect="non-scaling-stroke" d="
  M 324.98 277.75
  L 366.46 236.27
  Q 367.24 235.49 366.26 234.98
  Q 357.87 230.64 353.34 221.88
  A 0.45 0.45 0.0 0 0 352.62 221.77
  L 310.76 263.57"
/>
<path stroke="#fdc161" vector-effect="non-scaling-stroke" d="
  M 310.76 263.57
  Q 299.40 257.20 287.04 258.96"
/>
<path stroke="#dfc898" vector-effect="non-scaling-stroke" d="
  M 308.32 237.56
  L 322.11 223.79"
/>
<path stroke="#b9d09d" vector-effect="non-scaling-stroke" d="
  M 474.61 156.38
  L 446.02 185.46"
/>
<path stroke="#df9dbf" vector-effect="non-scaling-stroke" d="
  M 177.85 119.93
  L 166.53 131.31"
/>
<path stroke="#cedbfb" vector-effect="non-scaling-stroke" d="
  M 166.53 131.31
  L 165.62 128.87
  Q 165.13 127.53 163.70 127.53
  L 143.31 127.53"
/>
<path stroke="#c9d2f9" vector-effect="non-scaling-stroke" d="
  M 143.31 127.53
  L 123.45 127.54
  A 2.45 2.45 0.0 0 0 121.00 129.99
  L 121.00 169.99
  A 2.48 2.48 0.0 0 0 123.48 172.47
  L 143.42 172.47"
/>
<path stroke="#cedbfb" vector-effect="non-scaling-stroke" d="
  M 143.42 172.47
  L 163.57 172.48
  A 2.36 2.36 0.0 0 0 165.93 170.11
  L 165.85 153.33"
/>
<path stroke="#df9dbf" vector-effect="non-scaling-stroke" d="
  M 165.85 153.33
  L 180.80 138.41"
/>
<path stroke="#efb0c3" vector-effect="non-scaling-stroke" d="
  M 165.85 153.33
  Q 159.90 159.19 154.31 164.81
  Q 149.68 169.46 143.81 165.09"
/>
<path stroke="#e9a7c1" vector-effect="non-scaling-stroke" d="
  M 143.81 165.09
  Q 136.88 158.10 129.65 150.84
  Q 127.28 148.46 126.73 146.63
  C 125.06 141.08 130.01 136.24 135.53 137.29
  C 138.37 137.83 140.85 140.91 143.13 143.04"
/>
<path stroke="#efb0c3" vector-effect="non-scaling-stroke" d="
  M 143.13 143.04
  L 148.59 148.41
  Q 148.97 148.78 149.35 148.41
  L 166.53 131.31"
/>
<path stroke="#d9e5fd" vector-effect="non-scaling-stroke" d="
  M 143.31 127.53
  Q 143.94 135.21 143.13 143.04"
/>
<path stroke="#d9e5fd" vector-effect="non-scaling-stroke" d="
  M 143.81 165.09
  L 143.42 172.47"
/>
<path stroke="#df9dbf" vector-effect="non-scaling-stroke" d="
  M 177.85 219.93
  L 166.53 231.30"
/>
<path stroke="#cedbfb" vector-effect="non-scaling-stroke" d="
  M 166.53 231.30
  L 165.62 228.86
  Q 165.12 227.53 163.70 227.53
  L 143.36 227.54"
/>
<path stroke="#c9d2f9" vector-effect="non-scaling-stroke" d="
  M 143.36 227.54
  L 123.42 227.55
  A 2.42 2.41 -0.0 0 0 121.00 229.96
  L 121.00 270.00
  A 2.49 2.48 -0.0 0 0 123.49 272.48
  L 143.39 272.48"
/>
<path stroke="#cedbfb" vector-effect="non-scaling-stroke" d="
  M 143.39 272.48
  L 163.57 272.48
  A 2.35 2.35 0.0 0 0 165.92 270.13
  L 165.85 253.34"
/>
<path stroke="#df9dbf" vector-effect="non-scaling-stroke" d="
  M 165.85 253.34
  L 180.82 238.40"
/>
<path stroke="#efb0c3" vector-effect="non-scaling-stroke" d="
  M 165.85 253.34
  Q 160.03 259.06 154.50 264.50
  Q 149.77 269.15 144.09 265.35"
/>
<path stroke="#e9a7c1" vector-effect="non-scaling-stroke" d="
  M 144.09 265.35
  Q 137.06 258.29 129.80 250.99
  Q 127.38 248.57 126.79 246.81
  C 124.88 241.16 130.10 236.09 135.75 237.35
  C 138.53 237.98 141.15 241.19 143.33 243.32"
/>
<path stroke="#efb0c3" vector-effect="non-scaling-stroke" d="
  M 143.33 243.32
  L 148.59 248.41
  Q 148.97 248.78 149.35 248.41
  L 166.53 231.30"
/>
<path stroke="#fdb65e" vector-effect="non-scaling-stroke" d="
  M 324.98 277.75
  Q 319.37 268.54 310.76 263.57"
/>
<path stroke="#d9e5fd" vector-effect="non-scaling-stroke" d="
  M 143.36 227.54
  L 143.33 243.32"
/>
<path stroke="#d9e5fd" vector-effect="non-scaling-stroke" d="
  M 144.09 265.35
  Q 143.26 267.08 143.44 269.52
  Q 143.49 270.19 143.36 270.97
  Q 143.19 271.94 143.39 272.48"
/>
<path stroke="#b4877f" vector-effect="non-scaling-stroke" d="
  M 295.41 318.97
  Q 291.11 298.24 270.33 293.91"
/>
<path stroke="#ddc1c0" vector-effect="non-scaling-stroke" d="
  M 278.26 277.53
  L 285.47 262.58"
/>
<path stroke="#958eb6" vector-effect="non-scaling-stroke" d="
  M 288.77 322.49
  Q 278.22 327.82 267.27 333.49
  Q 264.22 335.07 262.70 335.22
  C 257.81 335.70 254.19 331.27 254.80 326.49
  Q 254.93 325.42 256.49 322.46"
/>
<path stroke="#df9dbf" vector-effect="non-scaling-stroke" d="
  M 177.71 320.09
  L 166.53 331.31"
/>
<path stroke="#cedbfb" vector-effect="non-scaling-stroke" d="
  M 166.53 331.31
  L 165.62 328.87
  Q 165.13 327.53 163.70 327.53
  L 143.35 327.53"
/>
<path stroke="#c9d2f9" vector-effect="non-scaling-stroke" d="
  M 143.35 327.53
  L 123.45 327.54
  A 2.45 2.45 0.0 0 0 121.00 329.99
  L 121.00 369.99
  A 2.48 2.48 0.0 0 0 123.48 372.47
  L 143.42 372.47"
/>
<path stroke="#cedbfb" vector-effect="non-scaling-stroke" d="
  M 143.42 372.47
  L 163.64 372.46
  A 2.33 2.33 0.0 0 0 165.97 370.10
  L 165.78 353.42"
/>
<path stroke="#df9dbf" vector-effect="non-scaling-stroke" d="
  M 165.78 353.42
  L 180.82 338.40"
/>
<path stroke="#efb0c3" vector-effect="non-scaling-stroke" d="
  M 165.78 353.42
  Q 160.92 358.20 156.46 362.65
  Q 152.98 366.11 151.10 366.73
  Q 147.54 367.90 143.81 365.09"
/>
<path stroke="#e9a7c1" vector-effect="non-scaling-stroke" d="
  M 143.81 365.09
  Q 136.88 358.10 129.65 350.84
  Q 127.28 348.45 126.74 346.64
  C 125.04 340.98 130.17 336.09 135.76 337.35
  C 138.52 337.98 141.12 341.15 143.26 343.25"
/>
<path stroke="#efb0c3" vector-effect="non-scaling-stroke" d="
  M 143.26 343.25
  L 148.59 348.41
  Q 148.97 348.78 149.35 348.41
  L 166.53 331.31"
/>
<path stroke="#d9e5fd" vector-effect="non-scaling-stroke" d="
  M 143.35 327.53
  L 143.26 343.25"
/>
<path stroke="#d9e5fd" vector-effect="non-scaling-stroke" d="
  M 143.81 365.09
  L 143.42 372.47"
/>
<path stroke="#c9d2f9" vector-effect="non-scaling-stroke" d="
  M 123.18 472.97
  L 143.46 472.56"
/>
<path stroke="#cedbfb" vector-effect="non-scaling-stroke" d="
  M 143.46 472.56
  L 163.49 472.48
  A 2.52 2.52 0.0 0 0 166.00 469.96
  L 166.00 430.03
  A 2.48 2.47 0.1 0 0 163.53 427.56
  L 143.40 427.55"
/>
<path stroke="#c9d2f9" vector-effect="non-scaling-stroke" d="
  M 143.40 427.55
  L 123.42 427.54
  A 2.41 2.41 0.0 0 0 121.01 429.94
  L 120.81 471.48"
/>
<path stroke="#d9e5fd" vector-effect="non-scaling-stroke" d="
  M 143.40 427.55
  L 143.46 472.56"
/>
</g>
<path fill="#6c5475" d="
  M 141.36 0.00
  L 145.78 0.00
  Q 163.35 3.68 163.63 22.01
  L 163.71 26.48
  Q 163.30 26.22 162.97 26.17
  Q 162.49 26.11 162.34 26.56
  Q 160.06 33.26 153.72 37.14
  C 142.46 44.02 128.55 38.03 124.40 26.01
  A 0.57 0.56 -13.5 0 0 123.78 25.64
  Q 123.49 25.68 123.28 25.97
  L 123.39 22.01
  Q 123.62 3.58 141.36 0.00
  Z"
/>
<path fill="#6c5475" d="
  M 216.35 0.00
  L 220.78 0.00
  Q 238.36 3.68 238.62 22.01
  Q 238.92 24.87 238.55 24.99
  Q 234.30 34.36 227.89 37.64
  C 216.43 43.51 203.61 37.88 199.29 26.00
  Q 199.07 25.41 198.26 25.72
  L 198.39 22.01
  Q 198.62 3.59 216.35 0.00
  Z"
/>
<path fill="#6c5475" d="
  M 291.35 0.00
  L 295.77 0.00
  Q 313.36 3.68 313.62 22.01
  L 313.72 26.98
  Q 312.73 26.40 312.53 26.84
  Q 307.77 37.53 296.99 39.64
  C 286.71 41.65 277.41 35.28 274.21 25.28
  Q 274.06 24.79 273.26 24.79
  L 273.38 22.01
  Q 273.63 3.59 291.35 0.00
  Z"
/>
<path fill="#6c5475" d="
  M 366.35 0.00
  L 370.77 0.00
  Q 388.37 3.68 388.62 22.01
  Q 388.92 24.84 388.55 25.00
  Q 384.17 34.69 377.41 37.90
  C 366.17 43.23 354.10 38.00 349.54 26.52
  A 0.65 0.65 0.0 0 0 348.98 26.11
  Q 348.65 26.09 348.27 26.21
  L 348.39 22.01
  Q 348.61 3.59 366.35 0.00
  Z"
/>
<path fill="#d3dcfb" d="
  M 123.39 22.01
  L 123.28 25.97
  Q 123.24 42.98 123.41 59.99
  C 123.52 71.23 132.21 80.02 143.43 80.08
  L 143.38 112.49
  Q 135.31 112.55 127.08 112.50
  Q 120.26 112.47 117.18 113.69
  Q 110.13 116.47 107.24 123.58
  Q 105.81 127.09 105.91 134.36
  Q 106.15 150.45 105.93 166.86
  Q 105.85 172.67 107.14 176.08
  Q 109.95 183.53 117.43 186.38
  Q 120.44 187.53 127.69 187.51
  Q 135.60 187.50 143.32 187.53
  L 143.34 212.49
  Q 135.37 212.54 127.15 212.51
  Q 120.04 212.48 116.97 213.75
  Q 110.07 216.62 107.26 223.53
  Q 105.85 227.02 105.92 233.30
  Q 106.13 250.84 105.99 269.75
  C 105.91 279.90 113.96 287.48 124.00 287.49
  Q 133.80 287.50 143.37 287.53
  Q 143.62 299.13 143.48 310.61
  Q 143.48 311.00 143.32 311.34
  Q 143.17 311.64 142.89 311.81
  A 0.14 0.14 0.0 0 0 142.89 312.05
  L 143.54 312.48
  Q 134.96 312.52 126.40 312.52
  Q 120.13 312.52 117.18 313.69
  Q 110.05 316.51 107.22 323.67
  Q 105.80 327.26 105.91 333.94
  Q 106.19 350.55 105.89 366.98
  C 105.73 375.77 108.84 382.95 117.16 386.29
  Q 120.23 387.52 127.69 387.51
  Q 135.60 387.49 143.37 387.55
  Q 143.60 398.61 143.48 409.56
  C 143.47 410.52 142.90 411.22 142.92 412.20
  Q 142.71 412.42 142.25 412.43
  Q 135.00 412.58 128.76 412.44
  Q 121.01 412.27 117.38 413.62
  Q 110.13 416.32 107.11 423.87
  Q 105.95 426.78 106.02 434.31
  Q 106.15 447.23 105.71 460.58
  Q 82.56 442.71 65.40 420.90
  Q 66.00 420.15 66.00 418.50
  Q 66.00 266.38 66.00 114.25
  Q 66.00 113.81 65.45 113.11
  Q 66.04 112.45 66.03 110.75
  Q 65.95 96.79 66.01 43.06
  Q 66.02 37.60 67.28 34.56
  Q 70.53 26.73 78.38 23.34
  Q 81.44 22.03 87.09 22.02
  Q 105.28 21.98 123.39 22.01
  Z"
/>
<path fill="#deeeff" d="
  M 163.63 22.01
  L 198.39 22.01
  L 198.26 25.72
  Q 198.28 39.61 198.25 53.52
  Q 198.24 62.91 199.36 66.28
  C 205.21 83.86 230.08 84.98 237.13 67.56
  Q 238.62 63.89 238.71 60.75
  Q 239.00 49.74 238.55 24.99
  Q 238.92 24.87 238.62 22.01
  L 273.38 22.01
  L 273.26 24.79
  Q 273.28 39.30 273.26 53.82
  Q 273.25 63.45 274.55 66.88
  C 280.66 83.05 303.35 84.98 311.32 69.27
  Q 313.66 64.67 313.68 61.48
  Q 313.79 44.21 313.72 26.98
  L 313.62 22.01
  L 348.39 22.01
  L 348.27 26.21
  Q 348.27 39.01 348.26 51.81
  Q 348.26 63.57 349.47 66.69
  Q 352.82 75.33 360.94 78.61
  C 374.37 84.02 388.49 74.26 388.72 59.75
  Q 388.93 45.99 388.55 25.00
  Q 388.92 24.84 388.62 22.01
  Q 404.98 21.98 421.11 22.01
  Q 429.13 22.02 432.28 23.03
  C 440.61 25.69 446.02 33.68 446.01 42.50
  Q 445.98 71.22 446.02 100.11
  L 382.81 163.31
  Q 382.45 162.99 382.12 162.77
  Q 381.72 162.48 381.22 162.48
  Q 300.79 162.52 219.87 162.42
  C 216.33 162.42 213.03 163.53 211.69 167.00
  C 209.40 172.91 213.48 177.56 219.50 177.54
  Q 261.35 177.41 368.55 177.52
  L 354.69 191.27
  L 322.11 223.79
  Q 322.33 222.44 321.50 222.44
  Q 270.00 222.50 218.50 222.50
  C 211.00 222.50 208.17 232.53 214.58 236.38
  Q 216.49 237.53 220.53 237.51
  Q 264.30 237.36 308.32 237.56
  L 287.04 258.96
  Q 286.49 261.22 285.47 262.58
  Q 232.17 262.37 218.50 262.50
  C 210.78 262.58 208.15 272.93 214.88 276.55
  Q 216.68 277.51 220.84 277.51
  Q 249.47 277.47 278.26 277.53
  L 270.33 293.91
  L 256.49 322.46
  Q 238.88 322.56 221.32 322.47
  Q 216.72 322.45 214.92 323.44
  C 208.13 327.16 210.67 337.45 218.76 337.46
  Q 285.50 337.55 347.50 337.50
  Q 353.61 337.50 355.57 332.38
  C 356.81 329.16 355.24 325.13 352.22 323.50
  Q 350.41 322.53 345.88 322.53
  Q 317.54 322.50 288.77 322.49
  L 295.41 318.97
  L 330.30 300.91
  L 353.63 277.60
  Q 378.99 277.43 403.98 277.50
  C 407.29 277.51 410.19 277.15 412.17 274.19
  C 414.72 270.37 413.39 265.20 409.27 263.32
  Q 407.48 262.50 403.59 262.53
  Q 386.74 262.65 369.01 262.27
  L 397.55 233.51
  L 445.37 185.56
  A 0.45 0.45 0.0 0 1 445.73 185.43
  Q 445.85 185.44 446.02 185.46
  Q 445.91 302.10 446.09 418.75
  Q 446.09 419.77 446.60 420.84
  Q 427.55 444.41 403.56 462.54
  Q 311.34 462.46 219.34 462.53
  Q 217.00 462.53 215.74 463.04
  C 209.56 465.53 209.52 474.13 215.30 476.74
  Q 217.11 477.56 220.74 477.55
  Q 301.03 477.35 379.71 477.50
  Q 380.10 477.50 380.11 477.89
  Q 380.11 478.07 380.05 478.31
  Q 332.85 505.87 278.23 510.82
  Q 270.82 511.49 263.37 512.00
  L 248.75 512.00
  Q 243.82 511.58 238.88 511.25
  Q 192.64 508.19 150.29 488.00
  Q 155.80 487.39 161.18 487.38
  Q 166.77 487.38 169.34 486.45
  C 177.72 483.41 181.11 476.35 181.06 467.56
  Q 180.95 447.42 180.99 430.02
  Q 181.00 423.80 176.92 418.83
  Q 171.98 412.82 164.00 412.69
  Q 153.07 412.51 144.00 412.38
  Q 143.49 412.37 142.92 412.20
  C 142.90 411.22 143.47 410.52 143.48 409.56
  Q 143.60 398.61 143.37 387.55
  Q 150.29 387.46 157.10 387.52
  Q 166.59 387.59 169.58 386.40
  Q 176.83 383.50 179.69 376.57
  Q 181.03 373.34 181.04 365.63
  Q 181.06 352.30 180.82 338.40
  Q 184.16 334.88 188.41 330.65
  C 191.87 327.22 191.92 322.45 188.15 319.25
  Q 183.40 315.23 177.71 320.09
  Q 174.50 315.28 169.29 313.49
  Q 166.39 312.49 159.10 312.51
  Q 151.31 312.52 143.54 312.48
  L 142.89 312.05
  A 0.14 0.14 0.0 0 1 142.89 311.81
  Q 143.17 311.64 143.32 311.34
  Q 143.48 311.00 143.48 310.61
  Q 143.62 299.13 143.37 287.53
  Q 151.19 287.49 158.89 287.51
  Q 166.78 287.54 169.91 286.25
  Q 176.74 283.44 179.66 276.69
  Q 181.02 273.54 181.04 265.53
  Q 181.07 252.25 180.82 238.40
  Q 184.17 234.87 188.41 230.66
  C 191.87 227.22 191.91 222.44 188.18 219.24
  Q 183.64 215.34 177.85 219.93
  Q 174.53 215.53 169.79 213.70
  Q 166.81 212.55 160.06 212.52
  Q 151.81 212.49 143.34 212.49
  L 143.32 187.53
  Q 153.71 187.49 163.75 187.37
  C 173.73 187.25 181.00 179.33 181.06 169.50
  Q 181.15 154.35 180.80 138.41
  Q 184.17 134.87 188.41 130.66
  C 191.87 127.22 191.91 122.44 188.18 119.24
  Q 183.64 115.34 177.85 119.93
  Q 174.54 115.53 169.79 113.70
  Q 166.81 112.55 160.07 112.52
  Q 151.80 112.49 143.38 112.49
  L 143.43 80.08
  C 152.23 80.10 159.85 74.58 162.62 66.33
  Q 163.66 63.23 163.70 56.52
  Q 163.79 41.49 163.71 26.48
  L 163.63 22.01
  Z
  M 355.96 129.89
  A 7.39 7.39 0.0 0 0 348.57 122.50
  L 218.43 122.50
  A 7.39 7.39 0.0 0 0 211.04 129.89
  L 211.04 130.09
  A 7.39 7.39 0.0 0 0 218.43 137.48
  L 348.57 137.48
  A 7.39 7.39 0.0 0 0 355.96 130.09
  L 355.96 129.89
  Z
  M 413.46 369.92
  A 7.43 7.43 0.0 0 0 406.03 362.49
  L 218.47 362.49
  A 7.43 7.43 0.0 0 0 211.04 369.92
  L 211.04 370.06
  A 7.43 7.43 0.0 0 0 218.47 377.49
  L 406.03 377.49
  A 7.43 7.43 0.0 0 0 413.46 370.06
  L 413.46 369.92
  Z
  M 355.96 429.88
  A 7.38 7.38 0.0 0 0 348.58 422.50
  L 218.42 422.50
  A 7.38 7.38 0.0 0 0 211.04 429.88
  L 211.04 430.08
  A 7.38 7.38 0.0 0 0 218.42 437.46
  L 348.58 437.46
  A 7.38 7.38 0.0 0 0 355.96 430.08
  L 355.96 429.88
  Z"
/>
<path fill="#543e5b" d="
  M 273.26 24.79
  Q 274.06 24.79 274.21 25.28
  C 277.41 35.28 286.71 41.65 296.99 39.64
  Q 307.77 37.53 312.53 26.84
  Q 312.73 26.40 313.72 26.98
  Q 313.79 44.21 313.68 61.48
  Q 313.66 64.67 311.32 69.27
  C 303.35 84.98 280.66 83.05 274.55 66.88
  Q 273.25 63.45 273.26 53.82
  Q 273.28 39.30 273.26 24.79
  Z"
/>
<path fill="#543e5b" d="
  M 163.71 26.48
  Q 163.79 41.49 163.70 56.52
  Q 163.66 63.23 162.62 66.33
  C 159.85 74.58 152.23 80.10 143.43 80.08
  C 132.21 80.02 123.52 71.23 123.41 59.99
  Q 123.24 42.98 123.28 25.97
  Q 123.49 25.68 123.78 25.64
  A 0.57 0.56 -13.5 0 1 124.40 26.01
  C 128.55 38.03 142.46 44.02 153.72 37.14
  Q 160.06 33.26 162.34 26.56
  Q 162.49 26.11 162.97 26.17
  Q 163.30 26.22 163.71 26.48
  Z"
/>
<path fill="#543e5b" d="
  M 198.26 25.72
  Q 199.07 25.41 199.29 26.00
  C 203.61 37.88 216.43 43.51 227.89 37.64
  Q 234.30 34.36 238.55 24.99
  Q 239.00 49.74 238.71 60.75
  Q 238.62 63.89 237.13 67.56
  C 230.08 84.98 205.21 83.86 199.36 66.28
  Q 198.24 62.91 198.25 53.52
  Q 198.28 39.61 198.26 25.72
  Z"
/>
<path fill="#543e5b" d="
  M 388.55 25.00
  Q 388.93 45.99 388.72 59.75
  C 388.49 74.26 374.37 84.02 360.94 78.61
  Q 352.82 75.33 349.47 66.69
  Q 348.26 63.57 348.26 51.81
  Q 348.27 39.01 348.27 26.21
  Q 348.65 26.09 348.98 26.11
  A 0.65 0.65 0.0 0 1 349.54 26.52
  C 354.10 38.00 366.17 43.23 377.41 37.90
  Q 384.17 34.69 388.55 25.00
  Z"
/>
<path fill="#ffdd40" d="
  M 483.69 90.11
  L 353.68 220.71
  A 0.59 0.59 0.0 0 1 352.72 220.53
  Q 348.64 211.01 351.09 201.01
  Q 351.43 199.62 352.98 196.18
  Q 354.03 193.83 354.69 191.27
  L 368.55 177.52
  L 382.81 163.31
  L 446.02 100.11
  Q 449.93 96.10 451.55 94.80
  Q 465.85 83.33 483.69 90.11
  Z"
/>
<path fill="#ffc839" d="
  M 483.69 90.11
  Q 493.57 94.76 498.24 104.49
  L 367.55 235.12
  A 0.36 0.36 0.0 0 0 367.66 235.70
  Q 375.47 239.06 383.76 238.14
  Q 386.74 237.81 390.71 236.29
  Q 394.08 234.99 397.55 233.51
  L 369.01 262.27
  L 353.63 277.60
  L 330.30 300.91
  L 330.02 300.22
  A 1.48 1.42 -54.6 0 1 329.92 299.55
  Q 330.70 288.00 324.98 277.75
  L 366.46 236.27
  Q 367.24 235.49 366.26 234.98
  Q 357.87 230.64 353.34 221.88
  A 0.45 0.45 0.0 0 0 352.62 221.77
  L 310.76 263.57
  Q 299.40 257.20 287.04 258.96
  L 308.32 237.56
  L 322.11 223.79
  L 354.69 191.27
  Q 354.03 193.83 352.98 196.18
  Q 351.43 199.62 351.09 201.01
  Q 348.64 211.01 352.72 220.53
  A 0.59 0.59 0.0 0 0 353.68 220.71
  L 483.69 90.11
  Z"
/>
<path fill="#ffdd40" d="
  M 498.24 104.49
  Q 503.82 118.97 497.76 130.95
  Q 495.59 135.23 488.67 142.22
  Q 481.58 149.38 474.61 156.38
  L 446.02 185.46
  Q 445.85 185.44 445.73 185.43
  A 0.45 0.45 0.0 0 0 445.37 185.56
  L 397.55 233.51
  Q 394.08 234.99 390.71 236.29
  Q 386.74 237.81 383.76 238.14
  Q 375.47 239.06 367.66 235.70
  A 0.36 0.36 0.0 0 1 367.55 235.12
  L 498.24 104.49
  Z"
/>
<path fill="#bec8f7" d="
  M 143.38 112.49
  Q 151.80 112.49 160.07 112.52
  Q 166.81 112.55 169.79 113.70
  Q 174.54 115.53 177.85 119.93
  L 166.53 131.31
  L 165.62 128.87
  Q 165.13 127.53 163.70 127.53
  L 143.31 127.53
  L 123.45 127.54
  A 2.45 2.45 0.0 0 0 121.00 129.99
  L 121.00 169.99
  A 2.48 2.48 0.0 0 0 123.48 172.47
  L 143.42 172.47
  L 163.57 172.48
  A 2.36 2.36 0.0 0 0 165.93 170.11
  L 165.85 153.33
  L 180.80 138.41
  Q 181.15 154.35 181.06 169.50
  C 181.00 179.33 173.73 187.25 163.75 187.37
  Q 153.71 187.49 143.32 187.53
  Q 135.60 187.50 127.69 187.51
  Q 120.44 187.53 117.43 186.38
  Q 109.95 183.53 107.14 176.08
  Q 105.85 172.67 105.93 166.86
  Q 106.15 150.45 105.91 134.36
  Q 105.81 127.09 107.24 123.58
  Q 110.13 116.47 117.18 113.69
  Q 120.26 112.47 127.08 112.50
  Q 135.31 112.55 143.38 112.49
  Z"
/>
<path fill="#73c3f9" d="
  M 65.45 113.11
  Q 66.00 113.81 66.00 114.25
  Q 66.00 266.38 66.00 418.50
  Q 66.00 420.15 65.40 420.90
  Q 22.36 367.17 13.20 299.49
  C 4.18 232.86 23.21 165.47 65.45 113.11
  Z"
/>
<path fill="#ff7186" d="
  M 180.80 138.41
  L 165.85 153.33
  Q 159.90 159.19 154.31 164.81
  Q 149.68 169.46 143.81 165.09
  Q 136.88 158.10 129.65 150.84
  Q 127.28 148.46 126.73 146.63
  C 125.06 141.08 130.01 136.24 135.53 137.29
  C 138.37 137.83 140.85 140.91 143.13 143.04
  L 148.59 148.41
  Q 148.97 148.78 149.35 148.41
  L 166.53 131.31
  L 177.85 119.93
  Q 183.64 115.34 188.18 119.24
  C 191.91 122.44 191.87 127.22 188.41 130.66
  Q 184.17 134.87 180.80 138.41
  Z"
/>
<rect fill="#bec8f7" x="211.04" y="122.50" width="144.92" height="14.98" rx="7.39"/>
<path fill="#d3dcfb" d="
  M 143.31 127.53
  Q 143.94 135.21 143.13 143.04
  C 140.85 140.91 138.37 137.83 135.53 137.29
  C 130.01 136.24 125.06 141.08 126.73 146.63
  Q 127.28 148.46 129.65 150.84
  Q 136.88 158.10 143.81 165.09
  L 143.42 172.47
  L 123.48 172.47
  A 2.48 2.48 0.0 0 1 121.00 169.99
  L 121.00 129.99
  A 2.45 2.45 0.0 0 1 123.45 127.54
  L 143.31 127.53
  Z"
/>
<path fill="#deeeff" d="
  M 143.31 127.53
  L 163.70 127.53
  Q 165.13 127.53 165.62 128.87
  L 166.53 131.31
  L 149.35 148.41
  Q 148.97 148.78 148.59 148.41
  L 143.13 143.04
  Q 143.94 135.21 143.31 127.53
  Z"
/>
<path fill="#deeeff" d="
  M 165.85 153.33
  L 165.93 170.11
  A 2.36 2.36 0.0 0 1 163.57 172.48
  L 143.42 172.47
  L 143.81 165.09
  Q 149.68 169.46 154.31 164.81
  Q 159.90 159.19 165.85 153.33
  Z"
/>
<path fill="#73c3f9" d="
  M 474.61 156.38
  C 517.87 242.64 507.22 345.62 446.60 420.84
  Q 446.09 419.77 446.09 418.75
  Q 445.91 302.10 446.02 185.46
  L 474.61 156.38
  Z"
/>
<path fill="#bec8f7" d="
  M 382.81 163.31
  L 368.55 177.52
  Q 261.35 177.41 219.50 177.54
  C 213.48 177.56 209.40 172.91 211.69 167.00
  C 213.03 163.53 216.33 162.42 219.87 162.42
  Q 300.79 162.52 381.22 162.48
  Q 381.72 162.48 382.12 162.77
  Q 382.45 162.99 382.81 163.31
  Z"
/>
<path fill="#bec8f7" d="
  M 143.34 212.49
  Q 151.81 212.49 160.06 212.52
  Q 166.81 212.55 169.79 213.70
  Q 174.53 215.53 177.85 219.93
  L 166.53 231.30
  L 165.62 228.86
  Q 165.12 227.53 163.70 227.53
  L 143.36 227.54
  L 123.42 227.55
  A 2.42 2.41 -0.0 0 0 121.00 229.96
  L 121.00 270.00
  A 2.49 2.48 -0.0 0 0 123.49 272.48
  L 143.39 272.48
  L 163.57 272.48
  A 2.35 2.35 0.0 0 0 165.92 270.13
  L 165.85 253.34
  L 180.82 238.40
  Q 181.07 252.25 181.04 265.53
  Q 181.02 273.54 179.66 276.69
  Q 176.74 283.44 169.91 286.25
  Q 166.78 287.54 158.89 287.51
  Q 151.19 287.49 143.37 287.53
  Q 133.80 287.50 124.00 287.49
  C 113.96 287.48 105.91 279.90 105.99 269.75
  Q 106.13 250.84 105.92 233.30
  Q 105.85 227.02 107.26 223.53
  Q 110.07 216.62 116.97 213.75
  Q 120.04 212.48 127.15 212.51
  Q 135.37 212.54 143.34 212.49
  Z"
/>
<path fill="#ff7186" d="
  M 180.82 238.40
  L 165.85 253.34
  Q 160.03 259.06 154.50 264.50
  Q 149.77 269.15 144.09 265.35
  Q 137.06 258.29 129.80 250.99
  Q 127.38 248.57 126.79 246.81
  C 124.88 241.16 130.10 236.09 135.75 237.35
  C 138.53 237.98 141.15 241.19 143.33 243.32
  L 148.59 248.41
  Q 148.97 248.78 149.35 248.41
  L 166.53 231.30
  L 177.85 219.93
  Q 183.64 215.34 188.18 219.24
  C 191.91 222.44 191.87 227.22 188.41 230.66
  Q 184.17 234.87 180.82 238.40
  Z"
/>
<path fill="#ffb332" d="
  M 324.98 277.75
  Q 319.37 268.54 310.76 263.57
  L 352.62 221.77
  A 0.45 0.45 0.0 0 1 353.34 221.88
  Q 357.87 230.64 366.26 234.98
  Q 367.24 235.49 366.46 236.27
  L 324.98 277.75
  Z"
/>
<path fill="#bec8f7" d="
  M 322.11 223.79
  L 308.32 237.56
  Q 264.30 237.36 220.53 237.51
  Q 216.49 237.53 214.58 236.38
  C 208.17 232.53 211.00 222.50 218.50 222.50
  Q 270.00 222.50 321.50 222.44
  Q 322.33 222.44 322.11 223.79
  Z"
/>
<path fill="#d3dcfb" d="
  M 143.36 227.54
  L 143.33 243.32
  C 141.15 241.19 138.53 237.98 135.75 237.35
  C 130.10 236.09 124.88 241.16 126.79 246.81
  Q 127.38 248.57 129.80 250.99
  Q 137.06 258.29 144.09 265.35
  Q 143.26 267.08 143.44 269.52
  Q 143.49 270.19 143.36 270.97
  Q 143.19 271.94 143.39 272.48
  L 123.49 272.48
  A 2.49 2.48 0.0 0 1 121.00 270.00
  L 121.00 229.96
  A 2.42 2.41 0.0 0 1 123.42 227.55
  L 143.36 227.54
  Z"
/>
<path fill="#deeeff" d="
  M 143.36 227.54
  L 163.70 227.53
  Q 165.12 227.53 165.62 228.86
  L 166.53 231.30
  L 149.35 248.41
  Q 148.97 248.78 148.59 248.41
  L 143.33 243.32
  L 143.36 227.54
  Z"
/>
<path fill="#deeeff" d="
  M 165.85 253.34
  L 165.92 270.13
  A 2.35 2.35 0.0 0 1 163.57 272.48
  L 143.39 272.48
  Q 143.19 271.94 143.36 270.97
  Q 143.49 270.19 143.44 269.52
  Q 143.26 267.08 144.09 265.35
  Q 149.77 269.15 154.50 264.50
  Q 160.03 259.06 165.85 253.34
  Z"
/>
<path fill="#fbb989" d="
  M 310.76 263.57
  Q 319.37 268.54 324.98 277.75
  Q 330.70 288.00 329.92 299.55
  A 1.48 1.42 -54.6 0 0 330.02 300.22
  L 330.30 300.91
  L 295.41 318.97
  Q 291.11 298.24 270.33 293.91
  L 278.26 277.53
  L 285.47 262.58
  Q 286.49 261.22 287.04 258.96
  Q 299.40 257.20 310.76 263.57
  Z"
/>
<path fill="#bec8f7" d="
  M 369.01 262.27
  Q 386.74 262.65 403.59 262.53
  Q 407.48 262.50 409.27 263.32
  C 413.39 265.20 414.72 270.37 412.17 274.19
  C 410.19 277.15 407.29 277.51 403.98 277.50
  Q 378.99 277.43 353.63 277.60
  L 369.01 262.27
  Z"
/>
<path fill="#bec8f7" d="
  M 285.47 262.58
  L 278.26 277.53
  Q 249.47 277.47 220.84 277.51
  Q 216.68 277.51 214.88 276.55
  C 208.15 272.93 210.78 262.58 218.50 262.50
  Q 232.17 262.37 285.47 262.58
  Z"
/>
<path fill="#6c5475" d="
  M 270.33 293.91
  Q 291.11 298.24 295.41 318.97
  L 288.77 322.49
  Q 278.22 327.82 267.27 333.49
  Q 264.22 335.07 262.70 335.22
  C 257.81 335.70 254.19 331.27 254.80 326.49
  Q 254.93 325.42 256.49 322.46
  L 270.33 293.91
  Z"
/>
<path fill="#bec8f7" d="
  M 143.54 312.48
  Q 151.31 312.52 159.10 312.51
  Q 166.39 312.49 169.29 313.49
  Q 174.50 315.28 177.71 320.09
  L 166.53 331.31
  L 165.62 328.87
  Q 165.13 327.53 163.70 327.53
  L 143.35 327.53
  L 123.45 327.54
  A 2.45 2.45 0.0 0 0 121.00 329.99
  L 121.00 369.99
  A 2.48 2.48 0.0 0 0 123.48 372.47
  L 143.42 372.47
  L 163.64 372.46
  A 2.33 2.33 0.0 0 0 165.97 370.10
  L 165.78 353.42
  L 180.82 338.40
  Q 181.06 352.30 181.04 365.63
  Q 181.03 373.34 179.69 376.57
  Q 176.83 383.50 169.58 386.40
  Q 166.59 387.59 157.10 387.52
  Q 150.29 387.46 143.37 387.55
  Q 135.60 387.49 127.69 387.51
  Q 120.23 387.52 117.16 386.29
  C 108.84 382.95 105.73 375.77 105.89 366.98
  Q 106.19 350.55 105.91 333.94
  Q 105.80 327.26 107.22 323.67
  Q 110.05 316.51 117.18 313.69
  Q 120.13 312.52 126.40 312.52
  Q 134.96 312.52 143.54 312.48
  Z"
/>
<path fill="#ff7186" d="
  M 180.82 338.40
  L 165.78 353.42
  Q 160.92 358.20 156.46 362.65
  Q 152.98 366.11 151.10 366.73
  Q 147.54 367.90 143.81 365.09
  Q 136.88 358.10 129.65 350.84
  Q 127.28 348.45 126.74 346.64
  C 125.04 340.98 130.17 336.09 135.76 337.35
  C 138.52 337.98 141.12 341.15 143.26 343.25
  L 148.59 348.41
  Q 148.97 348.78 149.35 348.41
  L 166.53 331.31
  L 177.71 320.09
  Q 183.40 315.23 188.15 319.25
  C 191.92 322.45 191.87 327.22 188.41 330.65
  Q 184.16 334.88 180.82 338.40
  Z"
/>
<path fill="#bec8f7" d="
  M 256.49 322.46
  Q 254.93 325.42 254.80 326.49
  C 254.19 331.27 257.81 335.70 262.70 335.22
  Q 264.22 335.07 267.27 333.49
  Q 278.22 327.82 288.77 322.49
  Q 317.54 322.50 345.88 322.53
  Q 350.41 322.53 352.22 323.50
  C 355.24 325.13 356.81 329.16 355.57 332.38
  Q 353.61 337.50 347.50 337.50
  Q 285.50 337.55 218.76 337.46
  C 210.67 337.45 208.13 327.16 214.92 323.44
  Q 216.72 322.45 221.32 322.47
  Q 238.88 322.56 256.49 322.46
  Z"
/>
<path fill="#d3dcfb" d="
  M 143.35 327.53
  L 143.26 343.25
  C 141.12 341.15 138.52 337.98 135.76 337.35
  C 130.17 336.09 125.04 340.98 126.74 346.64
  Q 127.28 348.45 129.65 350.84
  Q 136.88 358.10 143.81 365.09
  L 143.42 372.47
  L 123.48 372.47
  A 2.48 2.48 0.0 0 1 121.00 369.99
  L 121.00 329.99
  A 2.45 2.45 0.0 0 1 123.45 327.54
  L 143.35 327.53
  Z"
/>
<path fill="#deeeff" d="
  M 143.35 327.53
  L 163.70 327.53
  Q 165.13 327.53 165.62 328.87
  L 166.53 331.31
  L 149.35 348.41
  Q 148.97 348.78 148.59 348.41
  L 143.26 343.25
  L 143.35 327.53
  Z"
/>
<path fill="#deeeff" d="
  M 165.78 353.42
  L 165.97 370.10
  A 2.33 2.33 0.0 0 1 163.64 372.46
  L 143.42 372.47
  L 143.81 365.09
  Q 147.54 367.90 151.10 366.73
  Q 152.98 366.11 156.46 362.65
  Q 160.92 358.20 165.78 353.42
  Z"
/>
<rect fill="#bec8f7" x="211.04" y="362.49" width="202.42" height="15.00" rx="7.43"/>
<path fill="#bec8f7" d="
  M 142.92 412.20
  Q 143.49 412.37 144.00 412.38
  Q 153.07 412.51 164.00 412.69
  Q 171.98 412.82 176.92 418.83
  Q 181.00 423.80 180.99 430.02
  Q 180.95 447.42 181.06 467.56
  C 181.11 476.35 177.72 483.41 169.34 486.45
  Q 166.77 487.38 161.18 487.38
  Q 155.80 487.39 150.29 488.00
  Q 136.83 482.20 123.18 472.97
  L 143.46 472.56
  L 163.49 472.48
  A 2.52 2.52 0.0 0 0 166.00 469.96
  L 166.00 430.03
  A 2.48 2.47 0.1 0 0 163.53 427.56
  L 143.40 427.55
  L 123.42 427.54
  A 2.41 2.41 0.0 0 0 121.01 429.94
  L 120.81 471.48
  L 105.71 460.58
  Q 106.15 447.23 106.02 434.31
  Q 105.95 426.78 107.11 423.87
  Q 110.13 416.32 117.38 413.62
  Q 121.01 412.27 128.76 412.44
  Q 135.00 412.58 142.25 412.43
  Q 142.71 412.42 142.92 412.20
  Z"
/>
<rect fill="#bec8f7" x="211.04" y="422.50" width="144.92" height="14.96" rx="7.38"/>
<path fill="#d3dcfb" d="
  M 143.40 427.55
  L 143.46 472.56
  L 123.18 472.97
  Q 121.76 472.36 120.81 471.48
  L 121.01 429.94
  A 2.41 2.41 0.0 0 1 123.42 427.54
  L 143.40 427.55
  Z"
/>
<path fill="#deeeff" d="
  M 143.40 427.55
  L 163.53 427.56
  A 2.48 2.47 0.1 0 1 166.00 430.03
  L 166.00 469.96
  A 2.52 2.52 0.0 0 1 163.49 472.48
  L 143.46 472.56
  L 143.40 427.55
  Z"
/>
<path fill="#bec8f7" d="
  M 403.56 462.54
  Q 392.38 471.44 380.05 478.31
  Q 380.11 478.07 380.11 477.89
  Q 380.10 477.50 379.71 477.50
  Q 301.03 477.35 220.74 477.55
  Q 217.11 477.56 215.30 476.74
  C 209.52 474.13 209.56 465.53 215.74 463.04
  Q 217.00 462.53 219.34 462.53
  Q 311.34 462.46 403.56 462.54
  Z"
/>
</svg>
